<svg id="Capa_1" data-name="Capa 1" xmlns="http://www.w3.org/2000/svg" viewBox="0 0 192.57 129.14"><defs><style>.cls-1{fill:#e6e7e8;}.cls-2{fill:none;stroke:#e6e7e8;stroke-miterlimit:10;stroke-width:0.5px;}.cls-3{fill:#fff;}</style></defs><path class="cls-1" d="M362,248.37v55.16c-.5,3.13-.91,6.23-3,8.9a21.72,21.72,0,0,1-17.57,8.86c-.82,0-1.63,0-2.44,0H192.24c-4.43,0-8.75-.5-12.62-2.88-6.21-3.82-9.93-9.08-9.9-16.68.06-17.5,0-35,0-52.5a1.45,1.45,0,0,1,.23-1.07,2.59,2.59,0,0,1,1.9-.66c.68-.05,1.37,0,2.06,0H358c.75,0,1.5,0,2.25.05A2.31,2.31,0,0,1,362,248.37Z" transform="translate(-169.72 -192.18)"/><path class="cls-2" d="M170,248.28V216.2a2.12,2.12,0,0,1,1.93-.94c.87,0,1.75,0,2.62,0q91.54,0,183.07,0c.87,0,1.75,0,2.62.06a2.3,2.3,0,0,1,1.81.83v32.27c-.94,0-1.87-.08-2.81-.08Z" transform="translate(-169.72 -192.18)"/><path class="cls-1" d="M362,216.1c-.94,0-1.87.08-2.81.08L170,216.2c-.23-4.09-.2-8.17,1.62-11.94,3.85-8,10.25-12,19.11-12.06,12.24,0,24.49,0,36.74,0H340.9c8.93,0,15.43,3.93,19.37,11.94a41.75,41.75,0,0,1,1.77,5.23Z" transform="translate(-169.72 -192.18)"/><rect class="cls-3" x="7.63" y="68.65" width="26.43" height="26.43"/></svg>