<svg id="Capa_1" data-name="Capa 1" xmlns="http://www.w3.org/2000/svg" viewBox="0 0 159.08 155.84"><defs><style>.cls-1{fill:#e6e7e8;fill-rule:evenodd;}</style></defs><path class="cls-1" d="M230.73,335.43a19.29,19.29,0,1,0-19.28,19.27,19.28,19.28,0,0,0,19.28-19.27" transform="translate(-155.1 -198.96)"/><path class="cls-1" d="M273.22,316h0a19.47,19.47,0,0,0-3.81,38.75,20.21,20.21,0,0,0,3.81,0,19.47,19.47,0,0,0,0-38.75" transform="translate(-155.1 -198.96)"/><path class="cls-1" d="M246.26,269.72A29.76,29.76,0,1,1,276,240a29.77,29.77,0,0,1-29.77,29.76m66.64-27.14a5.07,5.07,0,0,0-4.3-2.25H287.26V240a41,41,0,1,0-82,0h0v.37H189.36l-5.43-24.71a5.6,5.6,0,0,0-5.43-4.3H155.1v11.23H174l17.41,79.93a5.42,5.42,0,0,0,5.42,4.49h97.91a5.62,5.62,0,0,0,5.43-4.3L314,247.26A5.26,5.26,0,0,0,312.9,242.58Z" transform="translate(-155.1 -198.96)"/><path class="cls-1" d="M241.77,240.52,231.47,230l-8,7.86,14.22,14.41a5.61,5.61,0,0,0,3.93,1.69,5.25,5.25,0,0,0,3.94-1.5l23.58-22.28L261.43,222Z" transform="translate(-155.1 -198.96)"/></svg>