<svg id="Capa_1" data-name="Capa 1" xmlns="http://www.w3.org/2000/svg" viewBox="0 0 93.06 133.25"><defs><style>.cls-1{fill:#e6e7e8;}</style></defs><path class="cls-1" d="M264.79,323.57c-4.28-1.86-7.51-5.1-10.54-8.47a157.4,157.4,0,0,1-29.06-46.45c-3.45-8.45-6-17.18-6.11-26.41-.13-10.45,1.7-20.51,6.67-29.84,5.55-10.43,14-17.3,25.47-20.17,12.22-3.06,24.31-2.63,36,2.6a36.89,36.89,0,0,1,17.93,17.06c7.95,15.28,8.94,31.24,4,47.64a133.76,133.76,0,0,1-12.87,29,145.51,145.51,0,0,1-19,26.39,73.47,73.47,0,0,1-6.85,6.35,25.26,25.26,0,0,1-4,2.31Zm.74-66.51a20.82,20.82,0,1,0-20.76-20.87A20.78,20.78,0,0,0,265.53,257.06Z" transform="translate(-219.07 -190.32)"/></svg>