<svg id="Capa_1" data-name="Capa 1" xmlns="http://www.w3.org/2000/svg" viewBox="0 0 146 129.58"><defs><style>.cls-1,.cls-3{fill:#e6e7e8;}.cls-2{fill:#fff;}.cls-3{stroke:#fff;stroke-miterlimit:10;stroke-width:3px;}</style></defs><path id="path20118" class="cls-1" d="M329.28,284.92a19.42,19.42,0,0,0-3.94-1.69q-11.73,7.11-23.51,14.15a1.59,1.59,0,0,0,.85.37L337.26,301a1.54,1.54,0,0,0,1.23-.46,1.52,1.52,0,0,0,.41-1.24,19.29,19.29,0,0,0-8-13.32c-.54-.38-1.08-.72-1.64-1Zm8.18,21a1.44,1.44,0,0,0-.64-.22l-34.57-3.22a1.54,1.54,0,0,0-1.22.45,1.59,1.59,0,0,0-.42,1.24,19.3,19.3,0,0,0,34.89,8.74,19.49,19.49,0,0,0,2.62-5.24,1.51,1.51,0,0,0-.18-1.29,1.41,1.41,0,0,0-.48-.46Z" transform="translate(-192.91 -191.42)"/><path class="cls-1" d="M313.15,191.42H205.09a12.24,12.24,0,0,0-12.18,12.17v83.28A12.24,12.24,0,0,0,205.09,299H310.83a14.49,14.49,0,0,0,14.49-14.49v-81A12.24,12.24,0,0,0,313.15,191.42Z" transform="translate(-192.91 -191.42)"/><path id="rect14174-7" class="cls-2" d="M218.6,216.61h81a3.18,3.18,0,0,1,3.18,3.18h0a3.18,3.18,0,0,1-3.18,3.17h-81a3.17,3.17,0,0,1-3.18-3.17h0A3.18,3.18,0,0,1,218.6,216.61Z" transform="translate(-192.91 -191.42)"/><path id="rect14182-0" class="cls-2" d="M218.6,231.21h81a3.18,3.18,0,0,1,3.18,3.18h0a3.19,3.19,0,0,1-3.18,3.18h-81a3.18,3.18,0,0,1-3.18-3.18h0A3.18,3.18,0,0,1,218.6,231.21Z" transform="translate(-192.91 -191.42)"/><path id="path14282-6" class="cls-2" d="M247.64,243.11a8,8,0,0,0-5.4,2.54c-4.55,4.49-4.85,10.64-2,14.81-1.18.44-2.31.89-3.54,1.33a25.89,25.89,0,0,0-1.16-3.8,1.81,1.81,0,1,0-3.38,1.28l0,.07a22.42,22.42,0,0,1,1.07,3.72l-.63.23c-3.6,1.42-6.92,2.92-9,5.31a6.68,6.68,0,0,0-1.78,4.4,8.7,8.7,0,0,0,1.94,5.09,16.51,16.51,0,0,0,3.85,4,5.65,5.65,0,0,0,4,1.11,5.15,5.15,0,0,0,3.25-2.09,10.84,10.84,0,0,0,1.71-3.64,31.49,31.49,0,0,0,.73-12.06c1.92-.69,3.81-1.41,5.69-2.15a11.8,11.8,0,0,0,8.51,1.67c-.12.16-.21.3-.33.45a36,36,0,0,0-3.64,4.88l0,.05c-1.56,3.07-2.26,5.22-2,7.16A3.59,3.59,0,0,0,247,280a3.67,3.67,0,0,0,2.69.46,9.6,9.6,0,0,0,4.39-2.3,2.59,2.59,0,0,0,1.56.74,3.39,3.39,0,0,0,1.48-.23,12.19,12.19,0,0,0,3-1.77,14.58,14.58,0,0,0,1.9-1.75,6.16,6.16,0,0,0,4.49,1.15,7.61,7.61,0,0,0,3.82-1.93,13.54,13.54,0,0,0,3.18-4.28,4,4,0,0,0,1.88,0,3.89,3.89,0,0,0,2.28-1.72,7.23,7.23,0,0,0,.82-2.08c.05-.2.08-.33.12-.51a6.37,6.37,0,0,0,1.85-.05,25.56,25.56,0,0,0,5.91-1.84c2.1-.87,4.21-1.89,5.91-2.81.85-.47,1.59-.9,2.19-1.28a6.05,6.05,0,0,0,1.48-1.13,1.81,1.81,0,0,0-2.68-2.42c.15-.17-.23.19-.73.5s-1.19.72-2,1.15c-1.59.86-3.61,1.85-5.57,2.66a24.55,24.55,0,0,1-5,1.6,1.59,1.59,0,0,1-.54,0,1.8,1.8,0,0,0-2.39-.9,1.69,1.69,0,0,0-.53.35,4.31,4.31,0,0,0-1.08,2c-.18.63-.29,1.24-.42,1.74a3.3,3.3,0,0,1-.21.57.51.51,0,0,0,0-.13,2.27,2.27,0,0,0,0-.29c0-.13.19-.22-.3-1a1.68,1.68,0,0,0-.7-.62,2,2,0,0,0-1.23-.15,1.47,1.47,0,0,0-1,.64,1.35,1.35,0,0,0-.29.5,2.18,2.18,0,0,0-.13.43,5.52,5.52,0,0,0-.13.91v0a4.41,4.41,0,0,1-.1.46h0a11.39,11.39,0,0,1-3,4.84,4.29,4.29,0,0,1-2,1.07,2.21,2.21,0,0,1-1.65-.4c.61-.84,1.21-1.7,1.79-2.59a80.43,80.43,0,0,0,4.27-7.35,10.8,10.8,0,0,0,1.1-4.62,4.28,4.28,0,0,0-.19-1.42,2.69,2.69,0,0,0-1.23-1.57,2.77,2.77,0,0,0-2.14-.12,5.51,5.51,0,0,0-1.64,1,22.13,22.13,0,0,0-5.94,8.41,13.58,13.58,0,0,0-1.18,5.32,2.12,2.12,0,0,0-1.41-.8c-1,0-1.11.31-1.25.42a1.61,1.61,0,0,0-.36.39c-.13.17-.23.33-.35.52a25.24,25.24,0,0,0-1.29,2.5,15.16,15.16,0,0,1-2.33,2.68,7.71,7.71,0,0,1-3,1.83,12.28,12.28,0,0,1,1.62-4.92,39.62,39.62,0,0,1,3.27-4.34,14.1,14.1,0,0,0,3.13-5.4A1.81,1.81,0,0,0,255.8,260a1.76,1.76,0,0,0-1.21.14,10.63,10.63,0,0,1-7.18,1.18,11.48,11.48,0,0,0,5.29-4.47c2.42-4.44,2-8.93-.31-11.62a6.2,6.2,0,0,0-4.75-2.15Zm.06,3.61a2.43,2.43,0,0,1,2,.93c1.12,1.28,1.72,4.1-.14,7.51-.62,1.14-2.83,2.62-5.82,3.93-.15-.17-.3-.33-.43-.51-2-2.74-2.05-6.87,1.49-10.36A4.41,4.41,0,0,1,247.7,246.72Zm19.87,12.64a13.81,13.81,0,0,1-.41,1.39h0c-.77,1.51-2.32,4.31-4.07,7l-.21.32a11.94,11.94,0,0,1,.79-2.65,23,23,0,0,1,3.9-6.06Zm-33.83,7.37a28.38,28.38,0,0,1-.6,9.71,7.71,7.71,0,0,1-1.13,2.48c-.39.52-.67.66-.92.69a2.12,2.12,0,0,1-1.46-.52,13.62,13.62,0,0,1-3-3.14,5.13,5.13,0,0,1-1.23-2.95,2.87,2.87,0,0,1,.88-2c1.24-1.42,4.08-2.92,7.44-4.25Zm22.2,3.12,0,.06,0,.08c0-.1.06-.12.06-.14Zm3.41,1.21a7,7,0,0,0,.4,1.17A13,13,0,0,1,258,274l-.4.26,0-.09a19.38,19.38,0,0,0,1.19-2c.17-.33.29-.58.38-.8S259.31,271.17,259.35,271.06Z" transform="translate(-192.91 -191.42)"/><path class="cls-3" d="M334.72,268.3l-2.82-4.68a8.78,8.78,0,0,0-3-3l-.26-.14a8.64,8.64,0,0,0-8.64.16l-22,13.29q5.93,9.83,11.86,19.65l22-13.28A8.68,8.68,0,0,0,334.72,268.3Z" transform="translate(-192.91 -191.42)"/><path class="cls-3" d="M274.41,288.06a8.71,8.71,0,0,0-2.91,12l2.83,4.67a8.66,8.66,0,0,0,11.93,3l22-13.28q-5.94-9.81-11.86-19.65Z" transform="translate(-192.91 -191.42)"/></svg>