<svg id="Capa_1" data-name="Capa 1" xmlns="http://www.w3.org/2000/svg" viewBox="0 0 111.57 142.97"><defs><style>.cls-1{fill:#262253;stroke:#262253;stroke-miterlimit:10;}</style></defs><path class="cls-1" d="M274.27,243.44c19.06,4.21,30.58,15.37,32,35.15,1.07,15-8,28.84-21.79,34.81A36.68,36.68,0,0,1,241.61,303c-1.64,1.3-3.32,2.57-4.92,3.94a2.27,2.27,0,0,1-3.22.1,13,13,0,0,0-15.65,0,2.33,2.33,0,0,1-3.12,0,13.19,13.19,0,0,0-15.68-.11,2.8,2.8,0,0,1-2.29.47,2.84,2.84,0,0,1-.92-2.18q-.06-64.14,0-128.29a2.77,2.77,0,0,1,.94-2.15,2.84,2.84,0,0,1,2.28.5,13.24,13.24,0,0,0,15.57-.08,2.41,2.41,0,0,1,3.24,0,13,13,0,0,0,15.53,0,2.46,2.46,0,0,1,3.36,0,13,13,0,0,0,15.41,0,2.45,2.45,0,0,1,3.35,0,13.07,13.07,0,0,0,15.43.07c.75-.53,1.6-1.33,2.42-.55a3.57,3.57,0,0,1,.89,2.38q.07,32.35,0,64.72Zm-34.69,56.69a8.19,8.19,0,0,1-.62-1c-1.42-3.2-2.87-6.4-4.22-9.63a1.59,1.59,0,0,1,1.16-2.27,1.66,1.66,0,0,1,2.13,1.24c.14.4.23.83.36,1.25a33,33,0,0,0,64.22-14.29c-3.25-24.12-31.2-36.55-51.22-22.71a32.32,32.32,0,0,0-14.26,23.8c-.2,1.8-.83,2.6-2,2.49s-1.65-1-1.47-2.78a35.76,35.76,0,0,1,7.58-18.79c.28-.36.54-.73,1-1.29H226.8c-1.18,0-2-.49-2-1.75s.86-1.74,2-1.73h1c5.51,0,11,0,16.51,0a4.22,4.22,0,0,0,2.43-.88,35.6,35.6,0,0,1,15.93-7.5c2.63-.49,5.32-.68,8-1V179.63c-.16,0-.27,0-.35,0a16.77,16.77,0,0,1-16-.85,1.88,1.88,0,0,0-1.52.16,16.43,16.43,0,0,1-16.95-.07,1.56,1.56,0,0,0-1.82,0,16.6,16.6,0,0,1-17,0,2.16,2.16,0,0,0-1.76,0,18.12,18.12,0,0,1-7.27,2.23,17,17,0,0,1-8.78-1.7V302.67a17,17,0,0,1,16.43.81,1.4,1.4,0,0,0,1.16-.09,16.63,16.63,0,0,1,17.35-.07,1.42,1.42,0,0,0,1.24,0C236.88,302.34,238.17,301.25,239.58,300.13Z" transform="translate(-195.28 -173.92)"/><path class="cls-1" d="M262.1,275.83v-9.09c0-1.63.51-2.17,2.16-2.19,3.14,0,6.28,0,9.41,0,1.33,0,1.78.63,1.77,1.88,0,3.08,0,6.16,0,9.42h8.44c2,0,2.28.23,2.28,2.22q0,3.26,0,6.51c0,2.13-.45,2.57-2.52,2.57h-8.2v1.41c0,2.56,0,5.12,0,7.67,0,2-.47,2.5-2.43,2.5-2.76,0-5.51,0-8.26,0-1.82,0-2.62-.82-2.63-2.67,0-2.8,0-5.59,0-8.39a4.32,4.32,0,0,0-.07-.52h-8c-1.83,0-2.62-.82-2.63-2.66,0-2.18,0-4.35,0-6.52,0-1.57.54-2.09,2.24-2.11C256.37,275.81,259.12,275.83,262.1,275.83Zm20.51,3.48H275c-2.32,0-3-.69-3-3v-8.19h-6.37c0,2.94,0,5.78,0,8.62,0,2.13-.44,2.57-2.51,2.57H255v4.34h7c3.63,0,3.63,0,3.63,3.62v7.85H272v-8.79c0-2.29.38-2.67,2.69-2.68h8Z" transform="translate(-195.28 -173.92)"/><path class="cls-1" d="M211.05,266.48c.17-2.37.62-3.12,1.84-3.1s1.56.67,1.81,3.12a7.11,7.11,0,0,1,5.21,5.94c.24,1.57-.25,2.62-1.4,2.71-1.44.11-1.83-.83-2-2.09a3.61,3.61,0,0,0-7.16-.23,3.54,3.54,0,0,0,2.34,4,8.61,8.61,0,0,0,1.7.26,7.09,7.09,0,0,1,6.53,6.13,6.92,6.92,0,0,1-4.48,7.59,1.18,1.18,0,0,0-.83,1.42c.07,1.21-.32,2.13-1.67,2.25-1.12.1-1.81-.74-1.78-2.26a1.33,1.33,0,0,0-1-1.47,6.73,6.73,0,0,1-4.35-6c-.11-1.15.23-2.09,1.48-2.26s1.79.65,2,1.8c.45,2.39,1.79,3.58,3.84,3.47a3.6,3.6,0,0,0,.83-7.05,7.51,7.51,0,0,0-1.42-.23,7.05,7.05,0,0,1-6.64-5.82,7,7,0,0,1,4.55-7.95Z" transform="translate(-195.28 -173.92)"/><path class="cls-1" d="M235.12,191.26h26.62a11.28,11.28,0,0,1,1.3,0c1,.14,1.71.81,1.52,1.74-.14.64-.89,1.21-1.49,1.65-.28.21-.84.06-1.27.06H208.13c-1.81,0-2.65-.54-2.67-1.71s.83-1.76,2.61-1.76h27.05Z" transform="translate(-195.28 -173.92)"/><path class="cls-1" d="M234.9,203.71H208.28c-.43,0-1,.15-1.27-.06-.59-.44-1.34-1-1.48-1.65-.2-.94.51-1.6,1.51-1.74a9,9,0,0,1,1.16,0h53.67c.34,0,.68,0,1,0a1.73,1.73,0,1,1-.06,3.45c-.38,0-.77,0-1.15,0Z" transform="translate(-195.28 -173.92)"/><path class="cls-1" d="M235.12,208.93h26.62a9.4,9.4,0,0,1,1.3,0c1,.14,1.71.81,1.52,1.74-.14.64-.89,1.21-1.49,1.65-.28.21-.84.06-1.27.06H208c-1.67,0-2.5-.57-2.52-1.71s.82-1.76,2.46-1.76q11.07,0,22.14,0Z" transform="translate(-195.28 -173.92)"/><path class="cls-1" d="M244.57,224.57H227.49a7.49,7.49,0,0,1-1.16,0,1.72,1.72,0,0,1,.07-3.43c.58-.05,1.16,0,1.74,0h34.6c1.15,0,1.87.64,1.86,1.77a1.66,1.66,0,0,1-1.78,1.7H244.57Z" transform="translate(-195.28 -173.92)"/><path class="cls-1" d="M244.58,235.28H261.8c.44,0,1-.15,1.28.06.59.45,1.43,1.08,1.44,1.65s-.82,1.2-1.37,1.71c-.19.17-.65.06-1,.06H227.27c-.24,0-.48,0-.72,0a1.73,1.73,0,1,1-.07-3.46c.38,0,.77,0,1.16,0Z" transform="translate(-195.28 -173.92)"/><path class="cls-1" d="M217,224.55c-.82,0-1.65,0-2.46,0a1.72,1.72,0,0,1,.05-3.43c1.69-.05,3.37-.05,5.06,0a1.58,1.58,0,0,1,1.7,1.74,1.6,1.6,0,0,1-1.75,1.7c-.87,0-1.74,0-2.6,0Z" transform="translate(-195.28 -173.92)"/><path class="cls-1" d="M217,238.75c-.82,0-1.64.05-2.46,0a1.62,1.62,0,0,1-1.68-1.78,1.57,1.57,0,0,1,1.65-1.65c1.73-.06,3.47-.07,5.2,0a1.57,1.57,0,0,1,1.61,1.7,1.59,1.59,0,0,1-1.58,1.72C218.84,238.81,217.92,238.75,217,238.75Z" transform="translate(-195.28 -173.92)"/><path class="cls-1" d="M217.2,256.13c-.87,0-1.74,0-2.6,0a1.72,1.72,0,1,1,0-3.44c1.68-.05,3.37-.05,5,0a1.56,1.56,0,0,1,1.65,1.64,1.61,1.61,0,0,1-1.66,1.79C218.84,256.18,218,256.13,217.2,256.13Z" transform="translate(-195.28 -173.92)"/><path class="cls-1" d="M207.41,224.56c-1.21,0-2.07-.81-1.94-1.84.16-1.23,1-1.68,2.15-1.63s2.08.82,1.95,1.84A1.8,1.8,0,0,1,207.41,224.56Z" transform="translate(-195.28 -173.92)"/><path class="cls-1" d="M207.48,238.76a1.8,1.8,0,0,1-2-1.77c0-1,.85-1.72,2.09-1.71a1.82,1.82,0,0,1,2,1.77C209.56,238.08,208.72,238.77,207.48,238.76Z" transform="translate(-195.28 -173.92)"/><path class="cls-1" d="M207.47,256.14a1.81,1.81,0,0,1-2-1.79c0-1,.86-1.7,2.1-1.69a1.82,1.82,0,0,1,2,1.79C209.55,255.47,208.71,256.15,207.47,256.14Z" transform="translate(-195.28 -173.92)"/></svg>