<svg id="Capa_1" data-name="Capa 1" xmlns="http://www.w3.org/2000/svg" viewBox="0 0 60.6 94.54"><defs><style>.cls-1{fill:#fff;stroke:#fff;stroke-miterlimit:10;stroke-width:2px;}</style></defs><path class="cls-1" d="M275.49,203.73a5.19,5.19,0,0,1,3.28,2.49A4.6,4.6,0,0,1,275,213c-.57,0-1.14,0-2,0,0,1.83.11,3.58,0,5.3A40.41,40.41,0,0,1,262.19,243a26.28,26.28,0,0,1-2.15,2.2,6.17,6.17,0,0,0,0,9.56,40.45,40.45,0,0,1,8.57,11.33,41.45,41.45,0,0,1,4.56,19.13V287c.61,0,1.15,0,1.68,0a4.61,4.61,0,0,1,.32,9.19c-.3,0-.61,0-.91,0H225.78a4.68,4.68,0,0,1-4.91-3.43,4.6,4.6,0,0,1,4.13-5.78c.57,0,1.14,0,1.86,0,0-.58,0-1.1,0-1.63a41.54,41.54,0,0,1,3.78-17.69,43,43,0,0,1,8.81-12.47,11.7,11.7,0,0,0,2.11-2.56,5.43,5.43,0,0,0-.59-6.33c-.85-1.08-1.9-2-2.84-3A40.49,40.49,0,0,1,227,218.16c-.12-1.67,0-3.36,0-5.19h-1.59a4.6,4.6,0,0,1-1.31-9.05c.14,0,.27-.12.4-.18ZM230,213a39,39,0,0,0,4.65,20.26,42.26,42.26,0,0,0,7.79,10,8.92,8.92,0,0,1,2.54,9.33,11.26,11.26,0,0,1-3.33,4.85A38.18,38.18,0,0,0,230,283.1c-.07,1.28,0,2.56,0,3.85h40c0-.15.06-.23.07-.32a39.15,39.15,0,0,0-3.85-18.37,42.16,42.16,0,0,0-8.56-11.55c-3.87-3.8-4-8.9-.48-12.93,1.08-1.22,2.29-2.32,3.36-3.54A37.62,37.62,0,0,0,269.84,219c.21-2,.2-3.94.29-6Zm19.95-3.15h24a8.35,8.35,0,0,0,1,0,1.5,1.5,0,0,0,1.34-1.46,1.44,1.44,0,0,0-1.17-1.51,4,4,0,0,0-1-.08H226a3.74,3.74,0,0,0-.89.06,1.47,1.47,0,0,0-1.27,1.53,1.52,1.52,0,0,0,1.44,1.47c.3,0,.6,0,.9,0Zm.1,80.22H226.15a8.29,8.29,0,0,0-1,0,1.52,1.52,0,0,0-1.35,1.46,1.46,1.46,0,0,0,1.18,1.51,4,4,0,0,0,1,.08H274a3.86,3.86,0,0,0,.9-.06,1.46,1.46,0,0,0,1.26-1.53,1.5,1.5,0,0,0-1.43-1.47c-.3,0-.6,0-.9,0Z" transform="translate(-219.7 -202.73)"/><path class="cls-1" d="M250,284H235.44c-1.94,0-2.45-.62-2.21-2.57a12.5,12.5,0,0,1,3.55-7.43c.82-.84,1.59-1.73,2.43-2.54a9.39,9.39,0,0,1,6.29-2.82c3-.09,6-.08,8.94,0a8.18,8.18,0,0,1,5.6,2.22,52.53,52.53,0,0,1,5,5.54,10.14,10.14,0,0,1,1.76,5.43c.16,1.54-.42,2.17-2,2.17Zm13.64-3.11c-.29-.8-.48-1.49-.78-2.13a19.15,19.15,0,0,0-4.25-5.11,6.43,6.43,0,0,0-4.53-1.94c-2.74,0-5.49-.12-8.22,0a7.05,7.05,0,0,0-3.51,1.19,17.18,17.18,0,0,0-4.91,5.34,20.35,20.35,0,0,0-1.08,2.6Z" transform="translate(-219.7 -202.73)"/><path class="cls-1" d="M244,224.22a13,13,0,0,1,3.12,1.06c3.46,2.31,7.35,2.83,11.35,3.05.93,0,1.87.06,2.8.16a1.92,1.92,0,0,1,1.69,2.86,17.15,17.15,0,0,1-2.61,3.41c-1.59,1.69-3.31,3.25-5,4.87a12,12,0,0,0-3.8,8.33,4.28,4.28,0,0,1-.11.8A1.4,1.4,0,0,1,250,250a1.37,1.37,0,0,1-1.46-1.21c-.16-1-.19-2-.41-3a11.87,11.87,0,0,0-3.56-6.15,35.49,35.49,0,0,1-6.46-8.42,2.7,2.7,0,0,1-.28-2.16A6.67,6.67,0,0,1,244,224.22Zm6,17.58c2.25-4.29,6.17-6.78,9.12-10.25a1.6,1.6,0,0,0-.39-.12c-4.74-.18-9.3-1-13.41-3.6a3.09,3.09,0,0,0-4,1,1.12,1.12,0,0,0-.09,1.47c1.3,1.76,2.47,3.62,3.87,5.3C246.7,237.56,248.79,239.18,250,241.8Z" transform="translate(-219.7 -202.73)"/><path class="cls-1" d="M251.47,255.42c0,1.54-.49,2.29-1.53,2.27s-1.54-.77-1.54-2.31a5.37,5.37,0,0,1,0-.9A1.56,1.56,0,0,1,250,253.1a1.53,1.53,0,0,1,1.49,1.51C251.49,254.87,251.47,255.15,251.47,255.42Z" transform="translate(-219.7 -202.73)"/><path class="cls-1" d="M251.49,263.14c0,1.56-.49,2.27-1.56,2.25s-1.53-.75-1.53-2.31v-.36c0-1.21.61-1.91,1.58-1.89s1.48.67,1.5,1.85C251.49,262.83,251.49,263,251.49,263.14Z" transform="translate(-219.7 -202.73)"/></svg>