<svg id="Capa_1" data-name="Capa 1" xmlns="http://www.w3.org/2000/svg" viewBox="0 0 131.37 134.17"><defs><style>.cls-1{fill:#262253;stroke:#262253;stroke-miterlimit:10;}</style></defs><path class="cls-1" d="M224.61,261.66c-2.7-3.6-5.12-6.92-7.65-10.16a53.68,53.68,0,0,1-9.09-16.11c-7.93-24.07,8.43-50.26,33.42-53.46a40.57,40.57,0,0,1,44.2,29.56c3.59,13,1.31,24.93-6.41,35.85-3.35,4.73-6.92,9.29-10.57,14.16.6,0,1,.07,1.42.07,7.15,0,14.31.11,21.46.08a2.54,2.54,0,0,1,2.75,2q8.37,24.09,16.82,48.14c.75,2.14.17,3-2.1,3H183.33c-2.29,0-2.89-.86-2.09-3q9.22-24.13,18.44-48.27a2.51,2.51,0,0,1,2.71-1.88c6.8,0,13.59,0,20.38,0Zm21.85,23.61a6.48,6.48,0,0,0,.48-.54c9.87-13.13,19.84-26.19,29.56-39.43a37,37,0,0,0,6.82-28.78c-2.79-17.33-17.59-30.82-34.92-31.61-21.89-1-38.34,16.27-39.23,36.46-.43,9.54,2.77,17.95,8.42,25.5q9.51,12.72,19.08,25.4Zm56.43,13.37c-1.58-4.5-3.1-8.7-4.52-12.94-.32-1-.8-1.18-1.74-1.18-7.52.06-15,.07-22.55.08-1.63,0-2.15-.41-2.4-1.94-.48-3-.94-6-1.42-9s-.95-5.86-1.42-8.7a3.57,3.57,0,0,0-4.25,1.62c-5.34,7.31-10.84,14.5-16.28,21.74-1.36,1.8-2.29,1.79-3.66,0q-8.37-11.12-16.71-22.26a2.44,2.44,0,0,0-2.23-1.15q-10.87.09-21.73,0a1.65,1.65,0,0,0-1.83,1.31c-2.51,6.68-5.08,13.35-7.63,20-.15.4-.26.81-.44,1.34h29.4c1.68,0,2.27.59,2.17,2.18-.3,4.56-.63,9.12-.93,13.68-.17,2.64-.31,5.29-.47,8h20.17v-10c0-2.48.26-2.74,2.7-2.74l53.93,0Zm-80.6-7.74c-.42,0-.59-.08-.77-.08-9.28,0-18.55,0-27.83,0-.82,0-1.08.38-1.33,1q-3.54,9.32-7.1,18.62c-.12.31-.17.64-.27,1h35.95C221.39,304.61,221.84,297.81,222.29,290.9ZM247.77,302v9.51h59.59L304.14,302Zm24.47-37.06a4.62,4.62,0,0,0,0,.68c.77,4.78,1.59,9.55,2.3,14.34.16,1.07.48,1.42,1.58,1.41,6.43-.07,12.86-.05,19.29-.07.39,0,.77-.06,1.17-.09a2,2,0,0,0,0-.5c-1.74-5-3.46-10-5.27-15A1.72,1.72,0,0,0,290,265c-2.13-.09-4.26-.06-6.39-.06Z" transform="translate(-180.41 -181.1)"/><path class="cls-1" d="M246.86,252.72c-15.23,0-27.6-10.31-30.29-24.49a8,8,0,0,1-.13-1.08,1.5,1.5,0,0,1,1.34-1.74,1.53,1.53,0,0,1,1.81,1.26c.16.57.23,1.15.36,1.73a26.57,26.57,0,1,0,.32-12.5c-.26.92-.58,1.76-1.69,1.83s-1.91-1-1.5-2.55a28.23,28.23,0,0,1,6.15-11.66c8.25-9.16,18.54-12.62,30.42-9.51s19.42,11.24,21.93,23.42c3.31,16.12-8.29,32.42-24.56,34.84C249.37,252.52,247.69,252.63,246.86,252.72Z" transform="translate(-180.41 -181.1)"/><path class="cls-1" d="M239,229.71c-2.83,0-5.45,0-8.07,0-1.8,0-2.52-.75-2.53-2.57,0-2.08,0-4.17,0-6.25,0-1.5.49-2,2-2,2.35,0,4.71,0,7.06,0H239c0-2.9,0-5.69,0-8.48,0-2,.39-2.38,2.38-2.39,2.53,0,5.07,0,7.6,0,1.21,0,1.72.5,1.71,1.71,0,3,0,6,0,9.17h9.08a1.31,1.31,0,0,1,1.52,1.48c0,2.49,0,5,0,7.47,0,1.44-.56,1.91-2,1.91h-8.56v7.92c0,2.36-.32,2.68-2.64,2.68h-6.25c-2.15,0-2.79-.67-2.79-2.86C239,234.92,239,232.39,239,229.71Zm8.42,7.3v-7.93c0-2.32.32-2.63,2.68-2.63H258V222.1h-7.42c-2.53,0-3.08-.55-3.08-3.11v-7.66h-5.16c0,2.91,0,5.71,0,8.52,0,1.81-.46,2.24-2.24,2.25h-8.26v4.35c3,0,5.86,0,8.75,0,1.29,0,1.82.53,1.77,1.79-.05,1,0,2,0,3V237Z" transform="translate(-180.41 -181.1)"/></svg>