<svg id="Capa_1" data-name="Capa 1" xmlns="http://www.w3.org/2000/svg" viewBox="0 0 105.6 139.15"><defs><style>.cls-1{fill:#262253;}</style></defs><path class="cls-1" d="M272.3,180.43c4,1.65,4.94,3.11,4.94,7.41v14.94c0,4.69-2.31,7-7,7h-1.44c0,1.75-.05,3.45,0,5.14,0,.33.54.68.89,1,3.68,2.77,7.35,5.59,11.09,8.29a11.11,11.11,0,0,1,4.86,9.74c-.07,12.41,0,24.81,0,37.22,0,.74,0,1.29.86,1.74,9.57,5.22,11.55,16.71,4.33,24.86-.17.2-.33.41-.71.86,1,0,1.73,0,2.47,0a10.46,10.46,0,0,1,.05,20.92c-3.44.08-6.88,0-10.32,0H207.9c-5.31,0-9.38-3.14-10.45-8.09a13.4,13.4,0,0,1-.22-2.83q0-37.42,0-74.85a11,11,0,0,1,4.77-9.5c3.74-2.71,7.39-5.55,11.11-8.28a2.19,2.19,0,0,0,1-2.14c-.08-1.29,0-2.6,0-4.05h-2c-3.94-.05-6.41-2.53-6.43-6.49,0-5.16,0-10.32,0-15.48,0-4.3,1-5.78,4.94-7.41ZM209.81,307H230.6a8.67,8.67,0,0,1,1.35,0,2,2,0,0,1,.24,3.94,5.56,5.56,0,0,1-1.48.1h-22c-2.48,0-3-.54-3-3q0-18.88,0-37.77a7.7,7.7,0,0,1,.05-1.36,2,2,0,0,1,3.8-.41,5.24,5.24,0,0,1,.22,1.73c0,6.11,0,12.22,0,18.34,0,.48,0,1,.07,1.48h54.11c0-.53-.08-1-.11-1.41-.44-6.89,2.31-12.12,8.24-15.63a1.86,1.86,0,0,0,1.11-1.87c0-8.69,0-17.39,0-26.08V243.7h-63.4v15.45c0,.32,0,.64,0,1-.06,1.47-.85,2.38-2.06,2.38s-2-.9-2-2.38c0-8.88,0-17.76.06-26.63a3.24,3.24,0,0,1,1.17-2.23q5-4,10.21-7.66a5,5,0,0,1,2.72-.91q21.6-.09,43.21,0a5.35,5.35,0,0,1,2.84,1c3.28,2.33,6.44,4.84,9.71,7.19a3.64,3.64,0,0,1,1.67,3.29c-.05,11.82,0,23.64,0,35.46v1.62h4.28c0-.39.09-.74.09-1.09q0-18.4,0-36.82a6.41,6.41,0,0,0-2.76-5.45c-4-3-8-6-12-8.94a3.46,3.46,0,0,0-1.85-.61c-3.39-.05-6.79,0-10.19,0-1.61,0-2.52-.74-2.53-2s.93-2.05,2.5-2.06c2.81,0,5.62,0,8.43,0h1.39V209.9H218.29v4.27h26.05a6.71,6.71,0,0,1,1.49.08,2,2,0,0,1-.25,4c-.45,0-.91,0-1.36,0-8.74,0-17.48,0-26.22.05a3.74,3.74,0,0,0-2.08.7c-3.85,2.8-7.6,5.72-11.46,8.49a7.2,7.2,0,0,0-3.18,6.34q.06,37.36,0,74.72c0,4.56,2.38,6.93,7,6.93h50.25l-1.94-4.37H241.14c-1.69,0-2.6-.77-2.57-2.1s.9-2,2.55-2h15.59a10.9,10.9,0,0,1,4.3-6.54,11.53,11.53,0,0,1,7.64-1.88,34.27,34.27,0,0,1-2.51-3.35,1.88,1.88,0,0,0-2-1h-53c-.44,0-.88,0-1.38.07Zm31.58-101.3h28.93c2.24,0,2.84-.58,2.84-2.78V187.34c0-2.22-.61-2.84-2.8-2.84H212.51c-2.13,0-2.76.62-2.77,2.73v15.61c0,2.32.56,2.89,2.87,2.89Zm31.76,33.72c0-1.68,0-3.25,0-4.82a1.7,1.7,0,0,0-.69-1c-2.81-2.14-5.62-4.27-8.48-6.34a3.14,3.14,0,0,0-1.74-.54q-20.77,0-41.56,0a3.14,3.14,0,0,0-1.73.55c-2.85,2.07-5.67,4.2-8.47,6.34a1.5,1.5,0,0,0-.66.92c-.07,1.61,0,3.23,0,4.9Zm4.44,63.23c-3.61,0-7.13,0-10.65,0a6.36,6.36,0,0,0-6.31,5.91,6.22,6.22,0,0,0,5.51,6.76c3.78.26,7.58.06,11.45.06Zm4.22,12.8c3.49,0,6.91,0,10.34,0a6.4,6.4,0,1,0,0-12.79c-3.12,0-6.24,0-9.36,0-.34,0-.68.07-1,.1ZM268.07,289c.74,5.67,6.41,10.07,12.22,9.58,5.37-.46,10.62-5.26,10.4-9.58Zm22.64-4.21c0-4.47-5.27-9.25-10.46-9.52-6.05-.31-11.66,4.06-12.15,9.52Z" transform="translate(-197.2 -180.43)"/><path class="cls-1" d="M214.11,195.1c0-1.36,0-2.72,0-4.07a2,2,0,1,1,4-.09q.08,4.14,0,8.28a2,2,0,1,1-4-.05C214.08,197.82,214.11,196.46,214.11,195.1Z" transform="translate(-197.2 -180.43)"/><path class="cls-1" d="M222.55,195.1c0-1.36,0-2.72,0-4.07a2.05,2.05,0,0,1,2-2.16,2,2,0,0,1,2.08,2.07c.05,2.8.05,5.61,0,8.41a2,2,0,1,1-4,0C222.52,197.91,222.55,196.5,222.55,195.1Z" transform="translate(-197.2 -180.43)"/><path class="cls-1" d="M260.36,195.11c0,1.36,0,2.72,0,4.07a2,2,0,1,1-4.05,0q-.06-4.08,0-8.15a2,2,0,1,1,4.05,0C260.39,192.4,260.36,193.75,260.36,195.11Z" transform="translate(-197.2 -180.43)"/><path class="cls-1" d="M268.8,195.19c0,1.31,0,2.62,0,3.93a2,2,0,0,1-2,2.24,2,2,0,0,1-2-2.09c-.05-2.76-.05-5.53,0-8.28a2,2,0,0,1,2-2.12,2.06,2.06,0,0,1,2,2.24C268.82,192.47,268.8,193.83,268.8,195.19Z" transform="translate(-197.2 -180.43)"/><path class="cls-1" d="M231,195.16c0-1.36,0-2.72,0-4.07a2,2,0,1,1,4-.08q.06,4.14,0,8.28a2,2,0,1,1-4-.06C231,197.88,231,196.52,231,195.16Z" transform="translate(-197.2 -180.43)"/><path class="cls-1" d="M243.49,195.15c0,1.31,0,2.62,0,3.94a2.06,2.06,0,0,1-2,2.27c-1.24,0-2.06-.86-2.07-2.33,0-2.62,0-5.25,0-7.87a2.08,2.08,0,0,1,2-2.29c1.21,0,2.05.9,2.08,2.34S243.49,193.84,243.49,195.15Z" transform="translate(-197.2 -180.43)"/><path class="cls-1" d="M251.92,195.13c0,1.36,0,2.72,0,4.07a2,2,0,1,1-4,0c0-2.72,0-5.43,0-8.15a2,2,0,1,1,4.06,0C252,192.41,251.92,193.77,251.92,195.13Z" transform="translate(-197.2 -180.43)"/></svg>