<svg id="Capa_1" data-name="Capa 1" xmlns="http://www.w3.org/2000/svg" viewBox="0 0 103.46 87.58"><defs><style>.cls-1{fill:#fff;}</style></defs><path class="cls-1" d="M198.27,243.1c.24-1.18.43-2.38.73-3.54a23.21,23.21,0,0,1,38.51-11.08l.74.69c1.56-1.2,3-2.42,4.56-3.45a21.76,21.76,0,0,1,12.91-3.63,1.18,1.18,0,0,0,1.36-.94,23,23,0,0,1,24.21-14.82c9.88.93,18.34,8.89,20.09,18.91a23.09,23.09,0,0,1-23.12,27.09c-.63,0-1,.12-1.17.75a22.22,22.22,0,0,1-5.36,8.58q-15.5,15.52-31,31a3,3,0,0,1-4.71,0q-15.48-15.46-30.94-30.94a22.68,22.68,0,0,1-6.62-13.63,4,4,0,0,0-.18-.56Zm57.26-14.92a7.7,7.7,0,0,0-.81,0,15.82,15.82,0,0,0-9.16,3,59.37,59.37,0,0,0-4.87,4.39,3.07,3.07,0,0,1-4.64,0c-1-.94-1.89-1.92-2.88-2.83a17.18,17.18,0,0,0-23.62,25q14.05,14.08,28.15,28.14c.21.21.44.39.68.6l.48-.45q14.19-14.19,28.35-28.38a22.23,22.23,0,0,0,2.63-3.31,29.06,29.06,0,0,0,1.54-3C260.91,247,255.73,239.38,255.53,228.18Zm6.14,1.06a17,17,0,1,0,17-17A17,17,0,0,0,261.67,229.24Z" transform="translate(-198.27 -206.21)"/><path class="cls-1" d="M242.34,260.05c1.22-2.31,2.37-4.4,3.44-6.53a3.53,3.53,0,0,1,3.54-2.15c3.37.06,6.74,0,10.1,0,2.12,0,3.53,1.24,3.51,3.06s-1.39,3-3.46,3c-2.66,0-5.32,0-8,0a1.33,1.33,0,0,0-1.38.86c-1.75,3.38-3.56,6.72-5.31,10.09a3.11,3.11,0,0,1-5.92-.32q-3.49-9.12-7-18.24c-.12-.31-.25-.61-.45-1.08-1.18,2.18-2.35,4.17-3.33,6.25a3.92,3.92,0,0,1-4.15,2.49c-2.52-.12-5.05,0-7.58,0a3,3,0,1,1,0-6.06c2,0,4,0,6,0a1.2,1.2,0,0,0,1.25-.75q2.73-5.22,5.54-10.42c1-1.84,3-2.46,4.48-1.3a4.58,4.58,0,0,1,1.34,1.94c2.38,6,4.71,12.09,7.05,18.14C242,259.29,242.13,259.56,242.34,260.05Z" transform="translate(-198.27 -206.21)"/><path class="cls-1" d="M278.67,220a31.41,31.41,0,0,1,3.22.76,1,1,0,0,0,1.29-.33,14.44,14.44,0,0,1,1.37-1.34,3.06,3.06,0,0,1,4.12.11,2.85,2.85,0,0,1,.12,4.09c-1.47,1.27-1.67,2.45-1.27,4.36a8.88,8.88,0,0,1-7.21,10.52,9.12,9.12,0,0,1-10.61-7.47A9.27,9.27,0,0,1,278.67,220Zm-3,9.14a3,3,0,0,0,2.94,3.1,3.09,3.09,0,0,0,3.11-2.95,3.05,3.05,0,0,0-3-3.08A3,3,0,0,0,275.66,229.18Z" transform="translate(-198.27 -206.21)"/></svg>