<svg id="Capa_1" data-name="Capa 1" xmlns="http://www.w3.org/2000/svg" viewBox="0 0 149.04 149.68"><defs><style>.cls-1{fill:#fefefe;fill-rule:evenodd;}</style></defs><path class="cls-1" d="M277.72,214.92a27.73,27.73,0,1,0-28.9,28h2.32a28.1,28.1,0,0,0,26.58-28m-63.8,98.23h-20.7a6,6,0,0,1-4.67-2.22,6.11,6.11,0,0,1-1.24-5.13,64.6,64.6,0,0,1,61.18-51.14l1.14,0h.69l1.15,0a64.65,64.65,0,0,1,61.22,51.14,6.18,6.18,0,0,1-1.24,5.13,6,6,0,0,1-4.68,2.22H286.06a5.85,5.85,0,1,0,0,11.69h20.71a17.76,17.76,0,0,0,17.37-21.42,76,76,0,0,0-45.45-54.71,5.89,5.89,0,0,0-1.64-.94c-1-.37-1.94-.7-2.92-1a39.75,39.75,0,0,0-23.81-71.58h-.69a39.74,39.74,0,0,0-23.82,71.58c-1,.33-2,.66-2.93,1a6.11,6.11,0,0,0-1.67,1,76.06,76.06,0,0,0-45.35,54.69,17.75,17.75,0,0,0,17.36,21.42h20.7a5.85,5.85,0,1,0,0-11.69Z" transform="translate(-175.48 -175.16)"/></svg>