<svg id="Capa_1" data-name="Capa 1" xmlns="http://www.w3.org/2000/svg" viewBox="0 0 68.6 84.95"><defs><style>.cls-1,.cls-2,.cls-3{fill:#fff;stroke:#fff;stroke-miterlimit:10;}.cls-1{stroke-width:3px;}.cls-2{stroke-width:0.5px;}</style></defs><path class="cls-1" d="M224.92,225.77c2-1.75,4.09-3.53,6.18-5.28a1.56,1.56,0,0,1,1.13-.43,2.13,2.13,0,0,1,1.2.9c.33.58,0,1.14-.5,1.56-1.22,1-2.5,1.9-3.62,3A29.4,29.4,0,0,0,220,246.94a39.84,39.84,0,0,0,.81,10.94,25.72,25.72,0,0,0,22.69,19.25,61,61,0,0,0,15.74-.34,25.76,25.76,0,0,0,20.69-22.9c.4-5,.41-9.94-1-14.81a30,30,0,0,0-11.34-16.17l-.28-.2c-.89-.65-1.1-1.39-.61-2.09a1.39,1.39,0,0,1,2.17-.14c1.78,1.49,3.51,3.06,5.25,4.6.31.28.57.62,1,1.11-.75-5.17-.42-10.13-.48-15.08,0-1.42.4-2.06,1.32-2.09s1.39.65,1.41,2.09c0,3.9,0,7.8.15,11.69a37.12,37.12,0,0,0,3,12.37A31.84,31.84,0,0,1,282.78,247c0,3.87.12,7.74-.92,11.53a30.4,30.4,0,0,1-4.14,9,2,2,0,0,0-.28,1.24q1.2,9.74,2.46,19.46c0,.37.12.73.14,1.1a1.37,1.37,0,1,1-2.72.32c-.35-2.7-.68-5.41-1-8.12-.42-3.36-.83-6.72-1.25-10.07a1.53,1.53,0,0,0-.12-.33c-.21.18-.4.32-.57.48A28.38,28.38,0,0,1,253.94,280c-3.5,0-7,.1-10.5-.16a27.67,27.67,0,0,1-17.72-8.21c-.14-.14-.28-.29-.43-.42s-.1,0-.26-.11c-.16,1.14-.31,2.25-.45,3.35q-.95,7.5-1.88,15c-.13,1-.74,1.61-1.59,1.49s-1.27-.82-1.13-1.87q1.32-10.24,2.62-20.48a1.62,1.62,0,0,0-.26-1,29.09,29.09,0,0,1-5.14-17c0-3.87,0-7.75,1.05-11.51.73-2.47,1.69-4.88,2.5-7.33a39.86,39.86,0,0,0,1.89-12.6c0-2.9,0-5.8,0-8.71,0-.62.2-1.19.82-1.34a1.73,1.73,0,0,1,1.33.19,1.69,1.69,0,0,1,.55,1.24c0,5,.29,10.07-.43,15.09C224.9,225.77,224.93,225.85,224.92,225.77Z" transform="translate(-215.7 -207.52)"/><path class="cls-2" d="M267.76,251.17l4.7-3.91-4.53-3.76c-.08.09-.15.13-.15.16.08,2.21-.8,2.3-2.4,2.25-1.39,0-2.79,0-4.18,0-1,0-1.62-.52-1.63-1.35s.6-1.36,1.6-1.37H265c0-.87,0-1.68,0-2.5a1.42,1.42,0,0,1,.8-1.47,1.43,1.43,0,0,1,1.64.35c2.6,2.17,5.21,4.33,7.8,6.5a1.4,1.4,0,0,1,0,2.43c-2.59,2.18-5.2,4.34-7.8,6.51a1.4,1.4,0,0,1-2.43-1.15c0-.79,0-1.58,0-2.48-1.39,0-2.72.07-4,0a2,2,0,0,1-1.28-.88,1.44,1.44,0,0,1,.23-1.3,1.9,1.9,0,0,1,1.27-.49c1.57-.06,3.13,0,4.7,0,1.41,0,1.83.42,1.85,1.82Z" transform="translate(-215.7 -207.52)"/><path class="cls-2" d="M235,243.17h3.85c1,0,1.62.54,1.61,1.37s-.62,1.35-1.62,1.35h-4.53c-1.65,0-2-.35-2-2,0-.12,0-.23,0-.54l-4.67,3.87,4.52,3.76c.09-.08.16-.11.16-.14-.11-2.1.71-2.32,2.38-2.26,1.39,0,2.79,0,4.18,0,1,0,1.63.51,1.65,1.33s-.61,1.39-1.67,1.4H235c0,.85,0,1.66,0,2.48a1.42,1.42,0,0,1-.8,1.47,1.41,1.41,0,0,1-1.64-.32c-2.6-2.17-5.2-4.33-7.79-6.51a1.38,1.38,0,0,1,0-2.42c2.59-2.18,5.2-4.34,7.8-6.51a1.41,1.41,0,0,1,2.45,1.12C235,241.46,235,242.25,235,243.17Z" transform="translate(-215.7 -207.52)"/><path class="cls-2" d="M254.09,263.51a1.4,1.4,0,0,1-1.21,1.5,1.38,1.38,0,0,1-1.5-1.21c-.21-1.05-.64-1.52-1.4-1.5s-1.17.47-1.35,1.46a1.36,1.36,0,0,1-2.72-.21,4.09,4.09,0,0,1,8.18,0Z" transform="translate(-215.7 -207.52)"/><path class="cls-3" d="M248.64,287.48c0-.65,0-1.31,0-2a1.35,1.35,0,0,1,1.35-1.37,1.32,1.32,0,0,1,1.36,1.35c0,1.37,0,2.73,0,4.1A1.33,1.33,0,0,1,250,291a1.35,1.35,0,0,1-1.36-1.36C248.61,288.91,248.64,288.19,248.64,287.48Z" transform="translate(-215.7 -207.52)"/></svg>