<svg id="Capa_1" data-name="Capa 1" xmlns="http://www.w3.org/2000/svg" viewBox="0 0 128.25 144.71"><defs><style>.cls-1{fill:#262253;}</style></defs><path class="cls-1" d="M270.58,187.41a20.54,20.54,0,0,1,7.7,3.27A16.32,16.32,0,0,1,285,203.6c.05,1.27.05,2.54,0,3.81a2.06,2.06,0,0,1-4.12.2c-.14-1.25-.06-2.53-.12-3.8-.38-7-5.48-12.07-12.53-12.13q-15.48-.13-30.95,0c-7.06.06-12.33,5.08-12.53,12.1s-.06,14.31-.07,21.47c0,.24,0,.47,0,.75l3.72,1.23v-1.59c0-5,0-10,0-15,0-5.22,3.57-8.75,8.78-8.89,1.46,0,2.92.05,4.38,0a10.62,10.62,0,0,1,7.45,2.45,5.6,5.6,0,0,0,7.41-.05,10.46,10.46,0,0,1,7.32-2.4c1.46.07,2.92,0,4.38,0,5.29.12,8.81,3.67,8.85,9,0,4.95,0,9.9,0,14.84v1.65l3.76-1.23v-7.31a10,10,0,0,1,.1-1.55,1.91,1.91,0,0,1,2.16-1.77,1.88,1.88,0,0,1,1.94,2c.05,2.21,0,4.43.07,6.64a2.81,2.81,0,0,0,.84,1.73,6,6,0,0,1,2.24,3.95,28.27,28.27,0,0,1,.09,4.78c-.32,3.34-2.68,5.44-6.3,5.65-1,.05-1.34.38-1.55,1.33a34.24,34.24,0,0,1-7.1,14.26l-.71.88a2,2,0,0,0-.06.28c.8.35,1.66.67,2.47,1.09a18.85,18.85,0,0,1,10.46,14.36A1.77,1.77,0,0,0,287,274c5.19,1.52,10.36,3.11,15.53,4.68a10.64,10.64,0,0,1,8,8.94q3.18,18.51,6.34,37a6.35,6.35,0,0,1-6.12,7.52H195.81c-5.12,0-7.8-3.17-7-8.23.13-.79.24-1.58.37-2.37q.71-4.18,1.43-8.35c0-.14.06-.28.09-.42.35-1.55,1.24-2.3,2.49-2.11s1.9,1.22,1.66,2.8c-.41,2.65-.88,5.29-1.33,7.93-.2,1.21-.43,2.41-.63,3.62a2.23,2.23,0,0,0,2.35,2.89H309.18c3.18,0,3.78-.67,3.26-3.76q-3-17.75-6-35.48a7,7,0,0,0-5.38-6c-5-1.46-10-3-15.1-4.56-.05.47-.13.81-.13,1.16,0,3,0,5.93,0,8.9a1.27,1.27,0,0,0,1.06,1.48,10.94,10.94,0,1,1-6.73.12,1.73,1.73,0,0,0,1.47-2c-.07-3.25-.06-6.5,0-9.75a1.31,1.31,0,0,0-1.18-1.54c-2-.53-4-1.19-6.21-1.85-1.62,3.93-3.25,7.72-4.75,11.57q-7.17,18.48-14.25,37c-.07.18-.14.35-.2.53-.39,1.1-1,2-2.28,2s-1.78-.9-2.17-1.93c-2-5.28-3.93-10.58-6-15.83-4.18-10.63-8.43-21.23-12.66-31.85-.17-.43-.38-.85-.63-1.4-2.29.69-4.54,1.34-6.76,2.07-.25.08-.48.63-.5,1a26.29,26.29,0,0,0,0,3.66,1.6,1.6,0,0,0,.88,1.1,10.53,10.53,0,0,1,7.84,9.93c.47,6.2,1,12.4,1.44,18.59.31,4.12-1.91,6.49-6.08,6.5a11,11,0,0,1-2.38-.17,1.84,1.84,0,0,1-1.51-2.21,1.89,1.89,0,0,1,1.84-1.81c.84-.08,1.7,0,2.54-.05a1.27,1.27,0,0,0,1.41-1.52c-.52-6.67-1-13.34-1.6-20-.29-3.11-3-5.22-6.32-5.34s-6.16,1.87-6.56,5c-.56,4.29-.81,8.62-1.17,12.93-.2,2.25-.37,4.51-.54,6.76-.14,1.86.16,2.18,2,2.2.61,0,1.23,0,1.84,0a2,2,0,0,1,2,1.85,1.84,1.84,0,0,1-1.55,2.19c-4.93.88-9-1-8.48-6.64.57-6.47,1-13,1.64-19.42.47-4.42,3.17-7.23,7.32-8.61.93-.31,1.33-.64,1.23-1.63s0-1.78,0-2.81c-.57.13-1,.2-1.44.33-4.59,1.39-9.17,2.83-13.78,4.16a7.09,7.09,0,0,0-5.42,6.16c-.75,4.59-1.54,9.18-2.32,13.78-.3,1.77-1.38,2.67-2.73,2.27a2,2,0,0,1-1.5-2.52c.93-5.47,1.7-11,2.93-16.38.86-3.75,3.62-6.08,7.3-7.2,5.26-1.61,10.53-3.21,15.81-4.76a1.77,1.77,0,0,0,1.47-1.69,18.86,18.86,0,0,1,11.81-14.89l.9-.4c.08,0,.15-.11,0,0-1.77-2.9-3.7-5.69-5.23-8.69a42.53,42.53,0,0,1-2.47-6.87c-.25-.84-.48-1.22-1.45-1.28-4.2-.26-6.46-2.74-6.49-7,0-2.26-.37-4.83,1.54-6.36s1.77-3.29,1.77-5.24q0-8.34,0-16.67c0-9.11,5.21-15.42,14.14-17.24a1.16,1.16,0,0,0,.34-.22Zm-41.84,45.48c.2,2.82,0,5.61.66,8.22a28.2,28.2,0,0,0,9.21,15.06c6.86,5.88,14.56,7.44,22.95,3.56,6.19-2.87,10.11-8,13-14a23.25,23.25,0,0,0,1.94-12.89c-2.88-.26-3.67-1.11-3.67-3.93,0-6.08,0-12.15,0-18.23,0-2.35-1.24-4.4-3.24-4.51-3.86-.21-7.79-1-11.35,1.83a9.06,9.06,0,0,1-11,0,9.68,9.68,0,0,0-7-2c-.84.07-1.7,0-2.54,0-3.39,0-5,1.66-5,5,0,5.94,0,11.87,0,17.81C232.72,231.76,231.94,232.61,228.74,232.89ZM241,263.09c.07,3.41.13,6.64-2.05,9.23a1.48,1.48,0,0,0,.19.36c4.33,3.25,8.65,6.51,13,9.71a1.62,1.62,0,0,0,1.43-.17c2.56-1.84,5.07-3.75,7.59-5.64l5.49-4.12c-2.29-2.74-2.24-6-2.16-9.38a25.16,25.16,0,0,1-23.51,0Zm42.66,30.23a6.69,6.69,0,1,0,6.68,6.76A6.72,6.72,0,0,0,283.68,293.32ZM252.62,317l.33,0c1-2.5,1.87-5,2.88-7.49a5.84,5.84,0,0,0,.34-3.55c-.63-3-1.14-6-1.71-9.05-.73,0-1.35.05-2,0-1.08-.13-1.62.22-1.73,1.39-.14,1.4-.5,2.78-.74,4.17-.32,1.8-1.17,3.74-.78,5.39C250,311,251.46,314,252.62,317Zm28.47-44.88c-.84-5.87-6.56-11.25-12.26-11.63,0,2.16-.05,4.31,0,6.46a7,7,0,0,0,.58,2,1.4,1.4,0,0,0,1.74,1,9,9,0,0,1,3.18.22C276.57,270.73,278.75,271.45,281.09,272.15ZM237,260.44c-6.34.82-12,6.26-12.43,11.68,2.22-.66,4.4-1.35,6.6-1.94a6.09,6.09,0,0,1,2.75-.28c1.47.36,2.3-.25,2.46-1.49C236.68,265.79,236.77,263.14,237,260.44Zm4.5,27.58,7.07-3-11.43-8.54-.22.21Zm22.61,0c1.57-3.89,3.08-7.65,4.6-11.41l-.24-.14L257,285Zm-6.66,2c-3.15-2.48-6.25-2.35-9.31,0C249.76,293.86,255.92,293.75,257.42,290Zm-32.8-59.62-3.2-.47c0,1.3,0,2.45,0,3.6.09,1.9,1.25,2.67,3.19,2.11Zm56.31,5.76c1-.38,2.13-.46,2.58-1,1.16-1.53.56-3.35.47-5.18l-3.05.47Zm-35,63.47h.26c.21-1.15.45-2.3.61-3.46a1.67,1.67,0,0,0-.21-1.15,37.53,37.53,0,0,0-2.46-2.89c-.17-.19-.54-.19-.82-.28,0,.26-.19.55-.11.75C244.14,295,245.07,297.29,246,299.63Zm13.43.4c1-2.7,2-5,2.83-7.32a2.2,2.2,0,0,0-.07-.87,2.28,2.28,0,0,0-.82.29c-2.12,1.88-3.44,4-2.14,7A5.71,5.71,0,0,1,259.41,300Z" transform="translate(-188.69 -187.41)"/></svg>