<svg id="Capa_1" data-name="Capa 1" xmlns="http://www.w3.org/2000/svg" viewBox="0 0 165.24 165.24"><defs><style>.cls-1{fill:#fefefe;fill-rule:evenodd;}</style></defs><path class="cls-1" d="M235,218a31,31,0,1,1,32.49,31l-1.5,0-1.52,0A31,31,0,0,1,235,218m-9.2,108.44H202.94a6.52,6.52,0,0,1-5.16-2.45,6.74,6.74,0,0,1-1.37-5.66,71.31,71.31,0,0,1,67.92-56.47c.55,0,1.09,0,1.65,0l1.65,0A70.64,70.64,0,0,1,291,266.36a6.46,6.46,0,0,0,4.54-12.09c-1.07-.4-2.15-.77-3.23-1.13a43.9,43.9,0,1,0-52.54,0,84,84,0,0,0-55.95,62.55,19.61,19.61,0,0,0,19.17,23.65h22.85a6.46,6.46,0,1,0,0-12.91Z" transform="translate(-183.35 -174.12)"/><path class="cls-1" d="M343.65,285.34a17.37,17.37,0,0,0-15.87-10.2H307.61a17.08,17.08,0,0,0-16.15,10.91c-.34.88-.75,2-1.18,3.29H248a6.47,6.47,0,0,0-4.63,2L232.3,302.71a6.45,6.45,0,0,0,0,9l11.29,11.49a6.48,6.48,0,0,0,4.6,1.93h21a6.46,6.46,0,1,0,0-12.91H250.93l-5-5.07,4.79-4.93h44.38a6.46,6.46,0,0,0,6.27-4.93,53,53,0,0,1,2.13-6.64,4.21,4.21,0,0,1,4.11-2.63h20.14a4.39,4.39,0,0,1,4.1,2.56,41.74,41.74,0,0,1,3.82,16.45,43.16,43.16,0,0,1-3.79,16.75,4.4,4.4,0,0,1-4,2.64H307.46a4.57,4.57,0,0,1-4.16-2.86,42.19,42.19,0,0,1-2-6.39,6.46,6.46,0,0,0-12.56,3,56.11,56.11,0,0,0,2.62,8.3,17.41,17.41,0,0,0,16.09,10.85h20.41A17.31,17.31,0,0,0,343.73,329,55.94,55.94,0,0,0,348.6,307a54.66,54.66,0,0,0-5-21.69" transform="translate(-183.35 -174.12)"/><path class="cls-1" d="M328.91,307.09a6.46,6.46,0,1,0-6.45,6.45,6.46,6.46,0,0,0,6.45-6.45" transform="translate(-183.35 -174.12)"/></svg>