<svg id="Capa_1" data-name="Capa 1" xmlns="http://www.w3.org/2000/svg" viewBox="0 0 94.72 94.7"><defs><style>.cls-1{fill:#fff;stroke:#fff;stroke-miterlimit:10;}</style></defs><path class="cls-1" d="M260.58,224.31h29.67c3.28,0,5.09,1.8,5.09,5.08v4.72c0,3.25-1.28,4.79-4.46,5.38-.37,2.92.2,5.43,2.7,7.37a8.53,8.53,0,0,1,3.27,7q0,16.1,0,32.2a10.53,10.53,0,0,1-10.77,10.75H205.12c-1.48,0-2-.51-2-2V205.14c0-1.49.5-2,2-2h53.46c1.49,0,2,.5,2,2q0,9,0,18Zm-26,47.6-.42.61c-3.28,4.67-7.75,6.77-13.43,6a13.53,13.53,0,0,1-11.55-12.7A13.34,13.34,0,0,1,219.82,252a3.82,3.82,0,0,0,3.37-3,18.66,18.66,0,0,0,.58-1.89c.27-1.5.47-3,.7-4.55h2.84a20.08,20.08,0,0,1-2,9.19c6,1.52,9.63,5.28,10.95,11.28a6.18,6.18,0,0,1,6.5.07c2-3.78,4.16-4.58,8.75-3.29,0-2,0-4,0-5.94a8.41,8.41,0,0,1,3.18-6.88c2.52-2,3.17-4.46,2.79-7.47l-.34-.06A4.56,4.56,0,0,1,253,234.6v-4.81c0-3.43,1.15-4.87,4.47-5.57v-2.86H206.22v60.37h1c9,0,18.07,0,27.11,0a6.83,6.83,0,0,0,5-2,19,19,0,0,1,10.18-5.21l2-.33v-3.58a17,17,0,0,1-3.24.5,16.55,16.55,0,0,1-3.15-.75C243.37,274.36,238.25,275.78,234.6,271.91ZM206.21,218.2h51.27v-12H206.21Zm48.34,36.27h39.26a6.22,6.22,0,0,0-2.39-5.52,9.11,9.11,0,0,1-3.64-7.43v-2H260.61a3.46,3.46,0,0,0,0,.52,10.22,10.22,0,0,1-4.12,9.41A5.57,5.57,0,0,0,254.55,254.47Zm-3,22.81a16.13,16.13,0,0,0-10,4.53,10,10,0,0,1-7.38,3c-8.94,0-17.88,0-26.82,0h-1.09v9h48.42c-2.71-2.72-3.3-6-3.16-9.48C251.58,282,251.51,279.68,251.51,277.28Zm3.06,4.39h39.18V257.6H254.57Zm-42.36-16.58a10.58,10.58,0,1,0,10.68-10.56A10.6,10.6,0,0,0,212.21,265.09Zm81.57,19.73H254.59c-.49,5.37,2.8,9,8.11,9h23a9.54,9.54,0,0,0,1.6-.09C291.64,293,294.14,289.59,293.78,284.82ZM274.15,236.4H290.4c1.37,0,1.91-.53,1.91-1.86,0-1.8,0-3.59,0-5.39,0-1.28-.55-1.82-1.86-1.82H257.87c-1.29,0-1.82.55-1.83,1.86v5.19c0,1.53.5,2,2,2ZM251.5,265.14a3,3,0,1,0-3,3A3,3,0,0,0,251.5,265.14Zm-9.07,3a3,3,0,1,0-3,3A3,3,0,0,0,242.43,268.15Z" transform="translate(-202.64 -202.65)"/><path class="cls-1" d="M230.35,224.31h19.08c1.61,0,2.08.47,2.08,2.08v11.05c0,1.48-.51,2-2,2H211.17c-1.48,0-2-.5-2-2,0-3.72,0-7.43,0-11.15,0-1.48.5-2,2-2Zm-18.12,12h36.19v-8.93H212.23Z" transform="translate(-202.64 -202.65)"/><path class="cls-1" d="M241,247a6,6,0,1,1-6.08,6A6.05,6.05,0,0,1,241,247Zm3,6a3,3,0,1,0-3,3A3,3,0,0,0,244,253Z" transform="translate(-202.64 -202.65)"/><path class="cls-1" d="M274.18,260.58h14.55c1.6,0,2.07.47,2.07,2.08q0,4.05,0,8.12c0,1.35-.53,1.88-1.89,1.89H259.44c-1.35,0-1.88-.54-1.88-1.89q0-4.15,0-8.31c0-1.36.53-1.89,1.88-1.89Zm-13.56,9h27.09v-5.93H260.62Z" transform="translate(-202.64 -202.65)"/><path class="cls-1" d="M272.63,275.76v2.9h-15v-2.9Z" transform="translate(-202.64 -202.65)"/><path class="cls-1" d="M290.76,275.76v2.9h-15v-2.9Z" transform="translate(-202.64 -202.65)"/></svg>