<svg id="Capa_1" data-name="Capa 1" xmlns="http://www.w3.org/2000/svg" viewBox="0 0 181.36 181.36"><defs><style>.cls-1{fill:#fefefe;fill-rule:evenodd;}</style></defs><path class="cls-1" d="M313.16,286c-5.92-5.85-13.32-5.85-19.2,0-4.5,4.45-9,8.9-13.4,13.43-1.21,1.24-2.23,1.51-3.7.68-2.91-1.59-6-2.86-8.8-4.61-13-8.18-23.92-18.71-33.58-30.56a79.8,79.8,0,0,1-12-19.29,2.75,2.75,0,0,1,.68-3.54c4.49-4.34,8.86-8.8,13.28-13.25,6.15-6.19,6.15-13.44,0-19.66-3.51-3.55-7-7-10.54-10.57s-7.2-7.28-10.86-10.87c-5.93-5.78-13.32-5.78-19.21,0-4.53,4.45-8.87,9-13.48,13.4A21.9,21.9,0,0,0,175.41,216c-.71,9.4,1.59,18.27,4.84,26.91,6.64,17.89,16.75,33.77,29,48.35a179.54,179.54,0,0,0,59.47,46.52c10.42,5.06,21.21,8.95,32.95,9.59,8.08.46,15.1-1.58,20.72-7.89,3.85-4.3,8.19-8.22,12.27-12.34,6-6.11,6.07-13.5.07-19.54Q324,296.75,313.16,286" transform="translate(-175.28 -166.03)"/><path class="cls-1" d="M306,255.93l13.92-2.38A62.49,62.49,0,0,0,267,202.26l-2,14A48.32,48.32,0,0,1,306,255.93" transform="translate(-175.28 -166.03)"/><path class="cls-1" d="M327.73,195.4A102.68,102.68,0,0,0,268.86,166l-2,14a89.61,89.61,0,0,1,75.82,73.48l13.92-2.38a103.36,103.36,0,0,0-28.91-55.73" transform="translate(-175.28 -166.03)"/></svg>